# AST/ASF file generated using VICON BodyLanguage
# -----------------------------------------------
:version 1.10
:name VICON
:units
  mass 1.0
  length 0.45
  angle deg
:documentation
   .ast/.asf automatically generated from VICON data using
   VICON BodyBuilder and BodyLanguage model FoxedUp or BRILLIANT.MOD
:root
   order TX TY TZ RX RY RZ
   axis XYZ
   position 0 0 0  
   orientation 0 0 0 
:bonedata
  begin
     id 1 
     name lhipjoint
     direction 0.528046 -0.759594 0.379717 
     length 2.39752 
     axis 0 0 0  XYZ
  end
  begin
     id 2 
     name lfemur
     direction 0.34202 -0.939693 0  
     length 7.31175  
     axis 0 0 20  XYZ
    dof rx ry rz
    limits (-160.0 20.0)
           (-70.0 70.0)
           (-60.0 70.0)
  end
  begin
     id 3 
     name ltibia
     direction 0.34202 -0.939693 0   
     length 7.52482   
     axis 0 0 20   XYZ
    dof rx
    limits (-10.0 170.0)
  end
  begin
     id 4 
     name lfoot
     direction 0.0675379 -0.185559 0.980309   
     length 2.00961   
     axis -90 7.62852e-016 20   XYZ
    dof rx rz
    limits (-45.0 90.0)
           (-70.0 20.0)
  end
  begin
     id 5 
     name ltoes
     direction 1.5352e-011 -4.22286e-011 1   
     length 1.01383   
     axis -90 7.62852e-016 20   XYZ
    dof rx
    limits (-90.0 20.0)
  end
  begin
     id 6 
     name rhipjoint
     direction -0.510274 -0.769251 0.384544   
     length 2.36742  
     axis 0 0 0  XYZ 
  end
  begin
     id 7 
     name rfemur
     direction -0.34202 -0.939693 0   
     length 7.45325   
     axis 0 0 -20   XYZ
    dof rx ry rz
    limits (-160.0 20.0)
           (-70.0 70.0)
           (-70.0 60.0)
  end
  begin
     id 8 
     name rtibia
     direction -0.34202 -0.939693 0   
     length 7.49587   
     axis 0 0 -20   XYZ
    dof rx
    limits (-10.0 170.0)
 end
 begin
     id 9 
     name rfoot
     direction -0.106475 -0.292536 0.950308   
     length 2.20898  
     axis -90 -7.62852e-016 -20   XYZ
    dof rx rz
    limits (-45.0 90.0)
           (-20.0 70.0)
  end
  begin
     id 10 
     name rtoes
     direction -1.53597e-011 -4.22023e-011 1   
     length 1.10065   
     axis -90 -7.62852e-016 -20   XYZ
    dof rx
    limits (-90.0 20.0)
  end
  begin
     id 11 
     name lowerback
     direction 0.0260024 0.998026 -0.0571652   
     length 2.11214   
     axis 0 0 0   XYZ
    dof rx ry rz
    limits (-20.0 45.0)
           (-30.0 30.0)
           (-30.0 30.0)
  end
  begin
     id 12 
     name upperback
     direction 0.0216202 0.999542 -0.0211766   
     length 2.11689   
     axis 0 0 0   XYZ
    dof rx ry rz
    limits (-20.0 45.0)
           (-30.0 30.0)
           (-30.0 30.0)
  end
  begin
     id 13 
     name thorax
     direction 0.00883312 0.999944 0.00589057   
     length 2.11821   
     axis 0 0 0   XYZ
    dof rx ry rz
    limits (-20.0 45.0)
           (-30.0 30.0)
           (-30.0 30.0)
  end
  begin
     id 14 
     name lowerneck
     direction -0.059386 0.994433 0.0870401   
     length 1.81176   
     axis 0 0 0   XYZ
    dof rx ry rz
    limits (-20.0 45.0)
           (-30.0 30.0)
           (-30.0 30.0)
  end
  begin
     id 15 
     name upperneck
     direction 0.0506457 0.97328 -0.223967   
     length 1.82382   
     axis 0 0 0   XYZ
    dof rx ry rz
    limits (-20.0 45.0)
           (-30.0 30.0)
           (-30.0 30.0)
  end
  begin
     id 16
     name head
     direction 0.0205902 0.996147 -0.0852487  
     length 1.84805  
     axis 0 0 0   XYZ
    dof rx ry rz
    limits (-20.0 45.0)
           (-30.0 30.0)
           (-30.0 30.0)
  end
  begin
     id 17 
     name lclavicle
     direction 0.949493 0.303881 -0.0782325  
     length 3.60584  
     axis 0 0 0   XYZ
    dof ry rz
    limits (-20.0 10.0)
           (0.0 20.0)
  end
  begin
     id 18 
     name lhumerus
     direction 1 -4.48965e-011 1.48782e-027   
     length 4.95681   
     axis 180 -30 -90   XYZ
    dof rx ry rz
    limits (-60.0 90.0)
           (-90.0 90.0)
           (-90.0 90.0)
  end
  begin
     id 19
     name lradius
     direction 1 -4.48952e-011 2.06528e-027   
     length 3.40915   
     axis 180 -30 -90   XYZ
    dof rx
    limits (-10.0 170.0)
  end
  begin
     id 20
     name lwrist
     direction 1 -4.48964e-011 1.28021e-027   
     length 1.70457   
     axis -1.61767e-015 90 90   XYZ
    dof ry
    limits (-180.0 0.0)
 end
  begin
     id 21 
     name lhand
     direction 1 -4.49094e-011 2.54887e-027   
     length 0.616403   
     axis -1.63363e-015 90 90   XYZ
    dof rx rz
    limits (-90.0 90.0)
           (-45.0 45.0)
  end
  begin
     id 22 
     name lfingers
     direction 1 -4.49002e-011 5.11407e-027   
     length 0.49696   
     axis -3.26723e-015 90 90   XYZ
    dof rx
    limits (0.0 90.0)
  end
  begin
     id 23
     name lthumb
     direction 0.707107 -6.34998e-011 0.707107   
     length 0.713539   
     axis -90 45 -2.25915e-014   XYZ
    dof rx rz
    limits (-45.0 45.0)
           (-45.0 45.0)
  end
  begin
     id 24 
     name rclavicle
     direction -0.937751 0.334612 -0.0930482   
     length 3.46287  
     axis 0 0 0   XYZ 
    dof ry rz
    limits (-10.0 20.0)
           (-20.0 0.0)
  end
  begin
     id 25 
     name rhumerus
     direction -1 -4.48962e-011 3.59972e-027  
     length 5.352   
     axis 180 30 90   XYZ
    dof rx ry rz
    limits (-90.0 60.0)
           (-90.0 90.0)
           (-90.0 90.0)
  end
  begin
     id 26 
     name rradius
     direction -1 -4.48987e-011 -3.76925e-027   
     length 3.43721   
     axis 180 30 90   XYZ
    dof rx
    limits (-10.0 170.0)
  end
  begin
     id 27 
     name rwrist
     direction -1 -4.48943e-011 1.28112e-027   
     length 1.7186   
     axis -1.61767e-015 -90 -90   XYZ
    dof ry
    limits (-180.0 0.0)
  end
  begin
     id 28
     name rhand
     direction -1 -4.49027e-011 2.55483e-027   
     length 0.72009   
     axis -1.63363e-015 -90 -90   XYZ
    dof rx rz
    limits (-90.0 90.0)
           (-45.0 45.0)
  end
  begin
     id 29
     name rfingers
     direction -1 -4.48827e-011 5.14506e-027   
     length 0.580555   
     axis -3.26723e-015 -90 -90   XYZ
    dof rx
    limits (0.0 90.0)
  end
  begin
     id 30
     name rthumb
     direction -0.707107 -6.34936e-011 0.707107   
     length 0.833564   
     axis -90 -45 2.25915e-014   XYZ
    dof rx rz
    limits (-45.0 45.0)
           (-45.0 45.0)
  end
:hierarchy
  begin
    root lhipjoint rhipjoint lowerback
    lhipjoint lfemur
    lfemur ltibia
    ltibia lfoot
    lfoot ltoes
    rhipjoint rfemur
    rfemur rtibia
    rtibia rfoot
    rfoot rtoes
    lowerback upperback
    upperback thorax
    thorax lowerneck lclavicle rclavicle
    lowerneck upperneck
    upperneck head
    lclavicle lhumerus
    lhumerus lradius
    lradius lwrist
    lwrist lhand lthumb
    lhand lfingers
    rclavicle rhumerus
    rhumerus rradius
    rradius rwrist
    rwrist rhand rthumb
    rhand rfingers
  end

#!OML:ASF H:\Terrain\Patient Classification 1\Terrain2\Thursday\justin.ASF
:FULLY-SPECIFIED
:DEGREES
1
root 7.64828 17.3534 -22.3949 -102.687 83.3525 -104.515
lowerback 0.371109 1.19323 4.71464
upperback -1.10049 1.73592 2.89933
thorax -1.29235 0.860359 0.311093
lowerneck -18.4611 -2.06284 -7.60315
upperneck 17.5913 -1.59417 4.40087
head 8.63276 -0.774612 2.54553
rclavicle -1.14192e-014 -1.39149e-014
rhumerus -32.1755 -11.3163 -77.8664
rradius 23.95
rwrist -4.67688
rhand -18.301 15.6361
rfingers 7.12502
rthumb 7.97987 -14.1933
lclavicle -1.14192e-014 -1.39149e-014
lhumerus -35.4251 4.26653 86.2535
lradius 24.2957
lwrist -4.59581
lhand -14.2439 20.063
lfingers 7.12502
lthumb 11.894 49.7052
rfemur -6.94202 -4.32139 29.1446
rtibia 27.8871
rfoot -19.586 -6.28615
rtoes 7.40008
lfemur -8.80033 -1.97229 -13.8544
ltibia 30.4743
lfoot -18.5756 -4.93236
ltoes 10.7856
2
root 7.65594 17.371 -22.3881 -101.693 83.1721 -103.415
lowerback 0.428757 1.26747 4.83777
upperback -1.03967 1.83992 2.96229
thorax -1.25778 0.913455 0.305452
lowerneck -18.5164 -2.13623 -7.54171
upperneck 17.5721 -1.682 4.27665
head 8.64046 -0.824753 2.48118
rclavicle -6.32228e-015 2.18663e-014
rhumerus -32.1371 -11.1293 -77.9359
rradius 23.9502
rwrist -5.19574
rhand -18.1321 15.6811
rfingers 7.12502
rthumb 8.14283 -14.142
lclavicle -6.32228e-015 2.18663e-014
lhumerus -35.3033 4.16909 86.3446
lradius 24.2613
lwrist -4.63995
lhand -14.2003 19.885
lfingers 7.12502
lthumb 11.9359 49.5248
rfemur -6.81814 -3.17383 29.3577
rtibia 28.162
rfoot -20.3614 -5.85629
rtoes 15.1807
lfemur -8.51933 -1.78712 -13.6074
ltibia 30.1661
lfoot -18.4995 -4.94468
ltoes 10.4659
3
root 7.65439 17.3372 -22.3916 -101.733 83.2774 -103.483
lowerback 0.377355 1.25947 4.67466
upperback -1.0332 1.82339 2.98277
thorax -1.22808 0.907423 0.418685
lowerneck -18.5254 -2.12411 -7.45827
upperneck 17.6064 -1.65294 4.11365
head 8.65 -0.822985 2.41569
rclavicle 4.29406e-016 -2.38542e-014
rhumerus -32.1156 -11.0415 -77.862
rradius 23.959
rwrist -5.22712
rhand -17.6005 15.6197
rfingers 7.12502
rthumb 8.65591 -14.1829
lclavicle 4.29406e-016 -2.38542e-014
lhumerus -35.2747 4.37688 86.3726
lradius 24.2795
lwrist -4.70306
lhand -13.9049 19.5807
lfingers 7.12502
lthumb 12.2208 49.2037
rfemur -7.14409 -3.9574 29.3018
rtibia 28.5429
rfoot -20.0147 -6.45601
rtoes 8.45168
lfemur -8.38795 -1.65887 -13.743
ltibia 29.7555
lfoot -18.4249 -4.94726
ltoes 11.1521
4
root 7.66126 17.3703 -22.3923 -102.525 83.3621 -104.314
lowerback 0.326509 1.2004 4.51517
upperback -1.04692 1.74004 2.99698
thorax -1.22066 0.867339 0.523946
lowerneck -18.5234 -2.06335 -7.42696
upperneck 17.6687 -1.57235 4.08734
head 8.66528 -0.786008 2.41269
rclavicle 8.84708e-015 2.32578e-014
rhumerus -32.0874 -10.8211 -77.9413
rradius 23.9758
rwrist -5.22704
rhand -17.6514 15.4347
rfingers 7.12502
rthumb 8.60671 -14.3699
lclavicle 8.84708e-015 2.32578e-014
lhumerus -35.3287 4.30887 86.5186
lradius 24.4289
lwrist -4.46576
lhand -13.8136 19.6636
lfingers 7.12502
lthumb 12.3089 49.2813
rfemur -7.11842 -3.43605 29.0707
rtibia 28.7709
rfoot -20.531 -5.68205
rtoes 14.129
lfemur -8.25572 -1.62569 -13.8489
ltibia 29.4659
lfoot -18.8193 -5.22267
ltoes 15.1042
5
root 7.66547 17.3767 -22.3941 -103.525 83.5155 -105.312
lowerback 0.325362 1.18579 4.31809
upperback -1.04657 1.71606 2.96251
thorax -1.22439 0.856206 0.598464
lowerneck -18.4843 -2.05783 -7.39144
upperneck 17.6499 -1.56533 4.03148
head 8.65084 -0.786345 2.38839
rclavicle -9.82431e-015 -1.19271e-015
rhumerus -32.0821 -10.5305 -78.1286
rradius 24.0201
rwrist -5.60085
rhand -18.2788 15.3199
rfingers 7.12502
rthumb 8.0013 -14.5086
lclavicle -9.82431e-015 -1.19271e-015
lhumerus -35.3502 4.0287 86.7429
lradius 24.6074
lwrist -4.21997
lhand -13.9418 19.8844
lfingers 7.12502
lthumb 12.1852 49.5095
rfemur -7.13794 -3.89037 28.8788
rtibia 28.9351
rfoot -20.5807 -5.68854
rtoes 12.7243
lfemur -8.13284 -1.71465 -14.0309
ltibia 29.2881
lfoot -19.7251 -5.37919
ltoes 17.8213
6
root 7.66999 17.3694 -22.3991 -104.48 83.8344 -106.289
lowerback 0.262739 1.21284 4.03405
upperback -1.03557 1.73918 2.85807
thorax -1.1818 0.868786 0.650705
lowerneck -18.4994 -2.16482 -7.58101
upperneck 17.669 -1.6792 4.12883
head 8.67002 -0.842547 2.43847
rclavicle 4.51459e-015 5.76476e-015
rhumerus -32.0698 -10.5337 -78.185
rradius 24.0051
rwrist -5.72122
rhand -18.7826 15.3823
rfingers 7.12502
rthumb 7.51498 -14.4643
lclavicle 4.51459e-015 5.76476e-015
lhumerus -35.3165 3.82649 86.9089
lradius 24.7191
lwrist -4.11156
lhand -13.9214 19.6426
lfingers 7.12502
lthumb 12.2049 49.2665
rfemur -7.19537 -4.05501 28.5153
rtibia 29.0292
rfoot -20.566 -5.78604
rtoes 12.18
lfemur -8.05559 -1.73485 -14.3904
ltibia 29.1931
lfoot -19.8149 -5.31183
ltoes 14.9277
7
root 7.67178 17.3765 -22.4196 -108.492 84.7498 -110.571
lowerback 0.00304533 1.20533 3.30145
upperback -1.09206 1.69569 2.5131
thorax -1.10369 0.847886 0.710863
lowerneck -18.6058 -2.28056 -7.96127
upperneck 17.7939 -1.80424 4.50116
head 8.74671 -0.887533 2.61436
rclavicle 9.28425e-015 -1.43125e-014
rhumerus -32.0433 -10.3765 -78.3073
rradius 24.0608
rwrist -5.95794
rhand -19.051 15.3003
rfingers 7.12502
rthumb 7.25594 -14.5553
lclavicle 9.28425e-015 -1.43125e-014
lhumerus -35.2266 3.73048 87.0445
lradius 24.7416
lwrist -3.92988
lhand -13.9954 19.4515
lfingers 7.12502
lthumb 12.1335 49.0797
rfemur -7.49553 -4.22826 27.2117
rtibia 29.087
rfoot -20.768 -4.86264
rtoes 15.669
lfemur -8.29022 -1.80311 -15.5716
ltibia 29.1794
lfoot -18.0899 -5.35926
ltoes 11.6237
8
root 7.66776 17.3407 -22.431 -111.06 84.7463 -113.215
lowerback -0.0465448 1.12107 3.36988
upperback -1.11499 1.58001 2.43501
thorax -1.09669 0.788391 0.594383
lowerneck -18.6459 -2.23653 -7.93546
upperneck 17.8584 -1.76372 4.5733
head 8.77318 -0.858942 2.64116
rclavicle 1.08178e-014 -1.70955e-014
rhumerus -32.045 -10.0489 -78.5706
rradius 24.2157
rwrist -6.42095
rhand -19.1081 15.096
rfingers 7.12502
rthumb 7.20081 -14.7615
lclavicle 1.08178e-014 -1.70955e-014
lhumerus -35.1353 3.78951 87.0421
lradius 24.7716
lwrist -3.94046
lhand -13.9122 19.6989
lfingers 7.12502
lthumb 12.2138 49.3223
rfemur -7.84601 -6.03473 27.1128
rtibia 29.0817
rfoot -20.1239 -5.39702
rtoes 5.42883
lfemur -8.46117 -1.75586 -15.7271
ltibia 29.2257
lfoot -18.0534 -5.38792
ltoes 10.4483
9
root 7.67293 17.3549 -22.425 -108.141 84.4951 -110.216
lowerback 0.0210442 1.1443 3.59588
upperback -1.11088 1.62104 2.55902
thorax -1.12774 0.808685 0.593776
lowerneck -18.6362 -2.16742 -7.78628
upperneck 17.965 -1.67626 4.41249
head 8.79931 -0.82544 2.57404
rclavicle -2.83183e-014 3.57812e-015
rhumerus -32.1343 -9.79 -78.7747
rradius 24.3716
rwrist -6.57783
rhand -19.0011 15.2567
rfingers 7.12502
rthumb 7.30409 -14.5972
lclavicle -2.83183e-014 3.57812e-015
lhumerus -35.1255 4.09237 86.9335
lradius 24.8057
lwrist -4.43817
lhand -13.3058 19.8133
lfingers 7.12502
lthumb 12.7984 49.401
rfemur -7.51297 -4.74395 27.5672
rtibia 29.1533
rfoot -20.7149 -5.43981
rtoes 10.4234
lfemur -8.35039 -1.5716 -15.3079
ltibia 29.1521
lfoot -18.0822 -5.29532
ltoes 9.75263
10
root 7.67575 17.3693 -22.4328 -112 84.6565 -114.159
lowerback -0.0537489 0.995824 3.32286
upperback -1.17848 1.41896 2.54347
thorax -1.16406 0.709089 0.732543
lowerneck -18.5407 -2.125 -7.87871
upperneck 18.0938 -1.58695 4.36333
head 8.82128 -0.796365 2.58578
rclavicle 3.96715e-015 -6.36111e-015
rhumerus -32.2362 -9.15871 -78.9909
rradius 24.5446
rwrist -6.90074
rhand -18.8954 15.4362
rfingers 7.12502
rthumb 7.40609 -14.4142
lclavicle 3.96715e-015 -6.36111e-015
lhumerus -35.1846 4.61431 86.8898
lradius 24.8032
lwrist -4.98478
lhand -12.9357 19.7353
lfingers 7.12502
lthumb 13.1552 49.3003
rfemur -7.36198 -4.67843 27.0753
rtibia 29.0715
rfoot -21.1672 -4.66389
rtoes 15.6499
lfemur -8.4804 -1.67321 -15.6567
ltibia 29.3036
lfoot -18.1156 -5.69499
ltoes 10.9642
11
root 7.67745 17.3721 -22.4403 -110.333 84.7714 -112.511
lowerback -0.0287935 1.02632 3.2979
upperback -1.21086 1.46201 2.53781
thorax -1.21127 0.730099 0.739448
lowerneck -18.4564 -2.0512 -7.93014
upperneck 18.1666 -1.49205 4.43511
head 8.8256 -0.748296 2.63247
rclavicle 1.16895e-014 -3.26007e-014
rhumerus -32.2858 -8.53455 -79.309
rradius 24.7403
rwrist -7.46676
rhand -18.7225 15.3672
rfingers 7.12502
rthumb 7.57304 -14.4772
lclavicle 1.16895e-014 -3.26007e-014
lhumerus -35.2183 4.67185 87.0096
lradius 24.8938
lwrist -4.78609
lhand -13.2551 19.6464
lfingers 7.12502
lthumb 12.8473 49.2311
rfemur -7.58999 -4.9954 27.1118
rtibia 29.1662
rfoot -20.7377 -5.29723
rtoes 11.3071
lfemur -8.40173 -1.68144 -15.6987
ltibia 29.1715
lfoot -18.0395 -5.67044
ltoes 11.6777
12
root 7.67706 17.3461 -22.4449 -109.798 84.8313 -112.053
lowerback -0.0400721 1.09418 3.31139
upperback -1.26047 1.55242 2.47353
thorax -1.25273 0.773596 0.664871
lowerneck -18.3987 -2.03311 -7.82647
upperneck 18.1879 -1.49749 4.42157
head 8.82178 -0.745333 2.61036
rclavicle 2.75332e-014 3.45885e-014
rhumerus -32.4126 -8.32298 -79.5618
rradius 25.0177
rwrist -8.10226
rhand -18.5348 15.2657
rfingers 7.12502
rthumb 7.75413 -14.5721
lclavicle 2.75332e-014 3.45885e-014
lhumerus -35.1976 4.21425 87.2188
lradius 25.0114
lwrist -4.37144
lhand -13.4128 19.4066
lfingers 7.12502
lthumb 12.6952 49.0008
rfemur -7.97518 -5.50869 27.1163
rtibia 29.1897
rfoot -20.1639 -5.70457
rtoes 6.76797
lfemur -8.51184 -1.33709 -15.7348
ltibia 29.1483
lfoot -17.9803 -5.87945
ltoes 11.5052
13
root 7.6853 17.3605 -22.4372 -109.663 84.8735 -111.968
lowerback -0.0995381 1.15416 3.18889
upperback -1.27753 1.62846 2.4574
thorax -1.23864 0.812652 0.717108
lowerneck -18.2998 -2.06348 -7.69115
upperneck 18.1313 -1.56199 4.31833
head 8.78717 -0.777508 2.54332
rclavicle -1.70039e-014 -3.27995e-014
rhumerus -32.5359 -8.40831 -79.6431
rradius 25.286
rwrist -8.29083
rhand -18.3672 14.8529
rfingers 7.12502
rthumb 7.9159 -14.9789
lclavicle -1.70039e-014 -3.27995e-014
lhumerus -35.1357 3.9756 87.313
lradius 25.0577
lwrist -4.45163
lhand -13.1744 19.3309
lfingers 7.12502
lthumb 12.9251 48.9107
rfemur -8.01575 -5.17639 27.0702
rtibia 29.3125
rfoot -20.4331 -5.30797
rtoes 10.195
lfemur -8.51035 -1.13395 -15.7387
ltibia 29.0569
lfoot -17.9652 -5.9902
ltoes 11.2826
14
root 7.69176 17.3545 -22.4317 -109.236 84.8829 -111.589
lowerback -0.218227 1.19568 3.13
upperback -1.25794 1.67623 2.44956
thorax -1.15275 0.837969 0.744568
lowerneck -18.3832 -2.10661 -7.60355
upperneck 18.2327 -1.63683 4.30277
head 8.84069 -0.808237 2.5152
rclavicle -3.78157e-016 -8.54774e-015
rhumerus -32.5661 -8.46907 -79.7122
rradius 25.4706
rwrist -8.12262
rhand -18.0802 14.4317
rfingers 7.12502
rthumb 8.19291 -15.3894
lclavicle -3.78157e-016 -8.54774e-015
lhumerus -35.055 3.84619 87.3852
lradius 25.1389
lwrist -4.51113
lhand -13.0874 19.5396
lfingers 7.12502
lthumb 13.0089 49.114
rfemur -8.10259 -5.12119 27.0978
rtibia 29.4393
rfoot -20.4889 -5.39023
rtoes 10.0456
lfemur -8.4992 -1.20064 -15.7199
ltibia 28.9663
lfoot -18.0194 -5.86998
ltoes 11.1046
